<?xml version="1.0" encoding="utf-8"?>
<!-- Generator: Adobe Illustrator 23.0.3, SVG Export Plug-In . SVG Version: 6.00 Build 0)  -->
<svg version="1.1" id="layer" xmlns="http://www.w3.org/2000/svg" xmlns:xlink="http://www.w3.org/1999/xlink" width="150" height="auto" x="0px" y="0px"
	 viewBox="0 0 34 8.6" style="enable-background:new 0 0 34 8.6;" xml:space="preserve">
<style type="text/css">
	.st0{fill:#F06449;}
	.st1{fill:#FFFFFF;}
</style>
<g>
	<path class="st0" d="M14.7,5.2c0,0.1,0,0.3,0.1,0.4C14.8,5.8,15,6,15.3,6.1c0.1,0.1,0.3,0.1,0.4,0.1c0.2,0,0.3,0,0.4-0.1
		c0.1-0.1,0.2-0.1,0.3-0.2c0.1-0.1,0.2-0.2,0.2-0.3c0-0.1,0.1-0.3,0.1-0.4c0-0.1,0-0.3-0.1-0.4c0-0.1-0.1-0.2-0.2-0.3
		c-0.1-0.1-0.2-0.2-0.3-0.2c-0.1-0.1-0.3-0.1-0.4-0.1c-0.2,0-0.3,0-0.4,0.1c-0.2,0.1-0.4,0.3-0.5,0.6C14.7,4.9,14.7,5,14.7,5.2
		 M13.8,5.2c0-0.3,0.1-0.5,0.2-0.8c0.1-0.2,0.2-0.4,0.4-0.6s0.4-0.3,0.6-0.4c0.2-0.1,0.5-0.1,0.8-0.1c0.3,0,0.5,0,0.8,0.1
		c0.2,0.1,0.4,0.2,0.6,0.4c0.2,0.2,0.3,0.4,0.4,0.6c0.1,0.2,0.2,0.5,0.2,0.8S17.6,5.8,17.5,6c-0.1,0.2-0.2,0.4-0.4,0.6
		c-0.2,0.2-0.4,0.3-0.6,0.4c-0.2,0.1-0.5,0.1-0.8,0.1c-0.3,0-0.5,0-0.8-0.1c-0.2-0.1-0.4-0.2-0.6-0.4C14.2,6.4,14.1,6.2,14,6
		C13.9,5.8,13.8,5.5,13.8,5.2 M19,5.2c0,0.1,0,0.3,0.1,0.4c0.1,0.3,0.3,0.5,0.5,0.6c0.1,0.1,0.3,0.1,0.4,0.1s0.3,0,0.4-0.1
		c0.1-0.1,0.2-0.1,0.3-0.2c0.1-0.1,0.2-0.2,0.2-0.3C21,5.4,21,5.3,21,5.2C21,5,21,4.9,21,4.8c0-0.1-0.1-0.2-0.2-0.3
		c-0.1-0.1-0.2-0.2-0.3-0.2c-0.1-0.1-0.3-0.1-0.4-0.1c-0.2,0-0.3,0-0.4,0.1c-0.2,0.1-0.4,0.3-0.5,0.6C19,4.9,19,5,19,5.2z M21.1,6.4
		L21.1,6.4c-0.1,0.2-0.3,0.4-0.5,0.5C20.4,7,20.1,7,19.9,7c-0.3,0-0.5,0-0.7-0.1c-0.2-0.1-0.4-0.2-0.6-0.4c-0.2-0.2-0.3-0.4-0.4-0.6
		c-0.1-0.2-0.1-0.5-0.1-0.7c0-0.3,0-0.5,0.1-0.7c0.1-0.2,0.2-0.4,0.4-0.6s0.3-0.3,0.5-0.4c0.2-0.1,0.5-0.1,0.7-0.1
		c0.2,0,0.3,0,0.4,0.1c0.1,0,0.2,0.1,0.3,0.1c0.1,0.1,0.2,0.1,0.3,0.2C21,3.7,21,3.8,21.1,3.8h0V1.9c0-0.1,0.1-0.2,0.2-0.2h0.5
		c0.1,0,0.2,0.1,0.2,0.2v4.8c0,0.1-0.1,0.2-0.2,0.2h-0.5c-0.1,0-0.2-0.1-0.2-0.2L21.1,6.4L21.1,6.4z M23.5,5.2c0,0.1,0,0.3,0.1,0.4
		c0.1,0.3,0.3,0.5,0.5,0.6c0.1,0.1,0.3,0.1,0.4,0.1c0.2,0,0.3,0,0.4-0.1C25,6.1,25.1,6,25.2,5.9c0.1-0.1,0.2-0.2,0.2-0.3
		c0-0.1,0.1-0.3,0.1-0.4c0-0.1,0-0.3-0.1-0.4c0-0.1-0.1-0.2-0.2-0.3c-0.1-0.1-0.2-0.2-0.3-0.2c-0.1-0.1-0.3-0.1-0.4-0.1
		c-0.2,0-0.3,0-0.4,0.1c-0.2,0.1-0.4,0.3-0.5,0.6C23.5,4.9,23.5,5,23.5,5.2 M22.6,5.2c0-0.3,0.1-0.5,0.2-0.8C22.8,4.2,23,4,23.2,3.8
		s0.4-0.3,0.6-0.4c0.2-0.1,0.5-0.1,0.8-0.1c0.3,0,0.5,0,0.8,0.1c0.2,0.1,0.4,0.2,0.6,0.4c0.2,0.2,0.3,0.4,0.4,0.6
		c0.1,0.2,0.2,0.5,0.2,0.8S26.4,5.8,26.3,6c-0.1,0.2-0.2,0.4-0.4,0.6c-0.2,0.2-0.4,0.3-0.6,0.4c-0.2,0.1-0.5,0.1-0.8,0.1
		c-0.3,0-0.5,0-0.8-0.1c-0.2-0.1-0.4-0.2-0.6-0.4C23,6.4,22.8,6.2,22.7,6C22.6,5.8,22.6,5.5,22.6,5.2 M26.9,2.1
		c0-0.1,0.1-0.3,0.2-0.4c0.1-0.1,0.2-0.2,0.4-0.2c0.2,0,0.3,0.1,0.4,0.1C27.9,1.9,28,2,28,2.1c0,0.1-0.1,0.3-0.2,0.4
		s-0.2,0.1-0.4,0.1S27.1,2.6,27,2.5C26.9,2.4,26.9,2.3,26.9,2.1 M30.6,4.4c-0.1,0-0.2-0.1-0.2-0.1C30.3,4.1,30.1,4,29.9,4
		c-0.3,0-0.5,0.1-0.5,0.4c0,0.2,0.2,0.3,0.4,0.3c0.2,0,0.4,0.1,0.6,0.2c0.2,0,0.3,0.1,0.5,0.2c0.5,0.2,0.5,0.6,0.5,0.9
		c0,0.9-0.8,1.2-1.4,1.2c-0.5,0-1.3-0.1-1.5-0.9c0-0.1,0.1-0.2,0.2-0.2h0.5c0.1,0,0.2,0.1,0.2,0.1c0.1,0.2,0.3,0.3,0.6,0.3
		c0.4,0,0.6-0.1,0.6-0.3c0-0.1-0.1-0.2-0.2-0.3c-0.3-0.2-1-0.2-1.3-0.4c-0.1-0.1-0.5-0.2-0.5-0.8c0-0.8,0.7-1.2,1.4-1.2
		c0.9,0,1.3,0.6,1.3,0.8c0,0.1,0,0.3-0.2,0.3L30.6,4.4L30.6,4.4z M31.4,3.9V3.6c0-0.1,0.1-0.2,0.2-0.2h0.5V2.5
		c0-0.1,0.1-0.2,0.1-0.2l0.5-0.2C32.9,2,33,2.1,33,2.2v1.1h0.8c0.1,0,0.2,0.1,0.2,0.2v0.4c0,0.1-0.1,0.2-0.2,0.2H33v1.6
		c0,0.2,0,0.3,0.1,0.4c0.1,0.1,0.2,0.1,0.3,0.1c0.1,0,0.1,0,0.1,0c0.1,0,0.2,0,0.2,0.1c0.1,0.1,0.1,0.2,0.2,0.3
		c0.1,0.1,0,0.2-0.1,0.3l0,0C33.7,7,33.5,7,33.2,7c-0.2,0-0.4,0-0.5-0.1c-0.1-0.1-0.3-0.1-0.4-0.3c-0.1-0.1-0.1-0.2-0.2-0.4
		c0-0.2,0-0.4,0-0.6V4.1h-0.5C31.5,4.1,31.4,4,31.4,3.9 M11.1,3.9V3.6c0-0.1,0.1-0.2,0.2-0.2h0.5V2.5c0-0.1,0.1-0.2,0.1-0.2l0.5-0.2
		c0.1-0.1,0.3,0.1,0.3,0.2v1.1h0.8c0.1,0,0.2,0.1,0.2,0.2v0.4c0,0.1-0.1,0.2-0.2,0.2h-0.8v1.6c0,0.2,0,0.3,0.1,0.4
		c0.1,0.1,0.2,0.1,0.3,0.1c0.1,0,0.1,0,0.1,0c0.1,0,0.2,0,0.2,0.1c0.1,0.1,0.1,0.2,0.2,0.3c0.1,0.1,0,0.2-0.1,0.3
		C13.4,7,13.2,7,12.9,7c-0.2,0-0.4,0-0.5-0.1c-0.1-0.1-0.3-0.1-0.4-0.3c-0.1-0.1-0.1-0.2-0.2-0.4c0-0.2,0-0.4,0-0.6V4.1h-0.5
		C11.2,4.1,11.1,4,11.1,3.9 M27.2,6.9h0.5c0.1,0,0.2-0.1,0.2-0.2V3.6c0-0.1-0.1-0.2-0.2-0.2h-0.5c-0.1,0-0.2,0.1-0.2,0.2v3.1
		C27.1,6.8,27.1,6.9,27.2,6.9"/>
	<path class="st0" d="M1.1,0C0.5,0,0,0.5,0,1.1v6.4c0,0.6,0.5,1.1,1.1,1.1h6.4c0.6,0,1.1-0.5,1.1-1.1V1.1C8.6,0.5,8.1,0,7.5,0L1.1,0
		L1.1,0z"/>
	<path class="st1" d="M1.8,4.1l3.4-2c0.1,0,0.1-0.2,0-0.2C5.2,1.8,5,1.7,5,1.7c-0.1,0-0.2,0-0.3,0c0,0-2.8,1.6-2.9,1.7
		c-0.1,0.1-0.2,0.1-0.4,0L0,2.5v0.7c0.4,0.2,1.2,0.7,1.5,0.9C1.6,4.1,1.7,4.1,1.8,4.1 M1.8,5.4l3.4-2c0.1,0,0.1-0.2,0-0.2
		C5.2,3.2,5,3.1,5,3C4.9,3,4.8,3,4.7,3c0,0-2.8,1.6-2.9,1.7c-0.1,0.1-0.2,0.1-0.4,0L0,3.9v0.7c0.4,0.2,1.2,0.7,1.5,0.9
		C1.6,5.5,1.7,5.5,1.8,5.4 M1.8,6.9l3.4-2c0.1,0,0.1-0.2,0-0.2C5.2,4.6,5,4.5,5,4.5c-0.1,0-0.2,0-0.3,0c0,0-2.8,1.6-2.9,1.7
		c-0.1,0.1-0.2,0.1-0.4,0L0,5.3V6c0.4,0.2,1.2,0.7,1.5,0.9C1.6,7,1.7,7,1.8,6.9"/>
</g>
</svg>
